<?xml version="1.0" standalone="no"?>
<!DOCTYPE svg PUBLIC "-//W3C//DTD SVG 20010904//EN"
 "http://www.w3.org/TR/2001/REC-SVG-20010904/DTD/svg10.dtd">
<svg version="1.0" xmlns="http://www.w3.org/2000/svg"
 width="225.000000pt" height="225.000000pt" viewBox="0 0 225.000000 225.000000"
 preserveAspectRatio="xMidYMid meet" >

<g transform="translate(0.000000,225.000000) scale(0.100000,-0.100000)"
fill="#000000" stroke="none">
<path d="M0 1125 l0 -1125 1125 0 1125 0 0 1125 0 1125 -1125 0 -1125 0 0
-1125z m456 95 c-6 -38 -5 -40 13 -30 32 17 66 12 90 -14 l23 -24 32 19 c32
20 110 26 134 10 24 -14 60 11 67 46 5 30 9 33 41 33 34 0 35 0 28 -35 -5 -31
-4 -35 15 -35 16 0 21 -6 21 -25 0 -20 -5 -25 -25 -25 -17 0 -25 -6 -25 -17 0
-10 -3 -28 -6 -39 -4 -17 0 -22 20 -26 29 -6 27 -10 46 97 21 119 9 107 109
103 98 -3 131 -20 131 -65 0 -24 10 -29 26 -13 5 5 21 10 34 10 14 0 73 0 133
1 l107 0 1 -53 1 -53 24 53 c21 46 27 52 54 52 31 0 35 -7 42 -70 3 -21 6 -18
19 20 l16 45 59 3 c32 2 70 3 84 3 14 0 53 -1 86 -1 l62 0 -9 -43 c-4 -23 -13
-68 -19 -99 l-11 -57 -85 1 c-78 0 -85 2 -104 25 -11 14 -20 35 -20 47 -1 15
-8 7 -26 -26 -23 -45 -27 -48 -64 -48 l-39 0 -3 48 -3 47 -25 -47 c-22 -44
-27 -48 -61 -48 -40 0 -38 -6 -55 115 l-8 50 -16 -80 -16 -80 -86 -2 c-80 -2
-89 -1 -103 20 -8 12 -15 36 -15 55 0 29 -2 32 -19 22 -11 -5 -44 -10 -74 -10
-58 0 -66 -8 -67 -67 0 -21 -4 -22 -90 -22 -109 1 -115 6 -107 89 5 59 -5 82
-17 37 -7 -28 -44 -47 -92 -47 -23 0 -33 -4 -28 -11 4 -7 23 -9 49 -5 34 4 44
2 49 -11 11 -28 -20 -46 -83 -51 -55 -4 -62 -2 -85 22 -19 22 -26 24 -33 13
-20 -34 -96 -50 -121 -25 -9 9 -12 9 -12 0 0 -8 -17 -12 -46 -12 -38 0 -45 3
-40 18 2 9 12 58 21 107 28 158 21 145 67 145 l41 0 -7 -40z"/>
<path d="M1016 1174 c-10 -27 -7 -34 18 -34 37 0 56 10 56 31 0 15 -7 19 -34
19 -22 0 -36 -6 -40 -16z"/>
<path d="M445 1116 c-20 -30 -12 -66 16 -66 25 0 47 45 33 68 -17 26 -32 25
-49 -2z"/>
<path d="M653 1125 c-3 -9 -3 -18 0 -21 7 -8 47 15 47 26 0 16 -40 11 -47 -5z"/>
<path d="M1772 1124 c-26 -18 -28 -46 -6 -65 21 -17 46 -2 55 34 10 36 -18 53
-49 31z"/>
<path d="M1230 1110 c-8 -14 -8 -26 0 -40 20 -37 56 -21 66 28 6 30 5 32 -24
32 -21 0 -35 -7 -42 -20z"/>
</g>
</svg>
